<svg width="172" height="88" viewBox="0 0 172 88" fill="none" xmlns="http://www.w3.org/2000/svg">
<g clip-path="url(#clip0_355_24)">
<mask id="mask0_355_24" style="mask-type:luminance" maskUnits="userSpaceOnUse" x="102" y="-1" width="42" height="49">
<path d="M102.016 -0.108521H143.894V47.4854H102.016V-0.108521Z" fill="white"/>
</mask>
<g mask="url(#mask0_355_24)">
<path d="M143.606 22.2738C143.394 18.6661 143.079 15.0322 142.553 11.4539C142.133 8.57231 141.636 5.66454 140.664 2.91704C140.349 1.97504 140.009 0.846599 139.088 0.359245C138.225 -0.0986717 137.385 0.225141 136.595 0.683057C136.047 1.00687 135.44 1.27508 134.863 1.57272C132.633 2.70116 130.429 3.94081 128.276 5.25895C124.497 7.5747 120.875 10.1881 117.464 13.0403C114.811 15.2742 112.267 17.6979 109.931 20.2819C108.198 22.1953 106.572 24.2134 105.102 26.3395C104.364 27.4156 103.604 28.5473 103.081 29.7575C103.001 29.9734 102.869 30.1892 102.844 30.4313C102.686 31.1051 103.052 31.913 103.761 32.1027C104.419 32.2629 105.205 31.8868 105.391 31.1574C105.391 31.1051 105.417 31.0527 105.442 30.9971C105.519 30.8369 105.6 30.6733 105.68 30.5131C105.965 29.921 106.309 29.3552 106.674 28.8155C107.175 28.0076 107.727 27.2553 108.275 26.4736C108.356 26.3656 108.433 26.2871 108.487 26.1792C108.513 26.1236 108.564 26.0974 108.593 26.0451C108.776 25.8031 108.959 25.5577 109.142 25.3157C109.536 24.8055 109.957 24.3214 110.377 23.8078C112.424 21.3874 114.628 19.124 116.964 16.998C117.647 16.3798 118.356 15.7583 119.091 15.1401C119.456 14.8163 119.825 14.522 120.191 14.2243C120.377 14.064 120.586 13.9038 120.769 13.7664C120.849 13.6879 120.926 13.6323 121.032 13.5538C121.006 13.58 120.98 13.58 120.98 13.58C121.006 13.5538 121.032 13.5538 121.032 13.5243C121.138 13.4458 121.086 13.472 121.032 13.5243C121.086 13.4982 121.138 13.4458 121.189 13.4164C122.87 12.0983 124.603 10.8325 126.361 9.64841C128.302 8.33026 130.297 7.11679 132.319 5.95891C133.419 5.34072 134.523 4.7487 135.626 4.15668C136.204 3.85904 136.753 3.56466 137.33 3.29645C137.516 3.21468 137.673 3.10674 137.856 3.02497C137.882 3.08058 137.908 3.15908 137.936 3.21468C138.039 3.48289 138.119 3.7511 138.225 4.04874C138.434 4.66693 138.591 5.28839 138.748 5.90658C139.117 7.30649 139.406 8.73258 139.64 10.1881C139.772 10.996 139.903 11.7745 140.009 12.5823C140.035 12.7721 140.06 12.9585 140.086 13.122C140.086 13.1482 140.086 13.1482 140.086 13.1744C140.115 13.2823 140.115 13.4164 140.141 13.5243C140.192 13.9561 140.243 14.3878 140.298 14.8163C140.481 16.5662 140.638 18.29 140.769 20.0398C141.032 23.5658 141.164 27.0656 141.164 30.5948C141.19 33.5811 141.138 36.5968 140.927 39.5863C140.901 40.1784 140.85 40.7704 140.795 41.3886C140.769 41.6601 140.744 41.9283 140.718 42.1703C140.692 42.3044 140.692 42.4123 140.664 42.5464C140.664 42.6021 140.664 42.6282 140.638 42.6806C140.532 43.3805 140.429 44.1099 140.218 44.8099C140.218 44.836 140.192 44.8884 140.192 44.9145C140.166 44.9701 140.115 45.0781 140.115 45.0781C139.746 45.6701 139.983 46.5859 140.587 46.9097C141.241 47.2597 141.976 47.07 142.37 46.4224C142.71 45.886 142.868 45.186 142.974 44.5646C143.185 43.5146 143.288 42.4647 143.394 41.4147C143.657 38.5887 143.734 35.7366 143.763 32.9073C143.894 29.329 143.814 25.8031 143.606 22.2738Z" fill="#1D1D1B"/>
</g>
<path d="M133.211 19.9319C133.159 19.3398 133.13 18.6955 132.973 18.1296C132.922 17.9399 132.816 17.7535 132.633 17.6717C132.187 17.4035 131.661 17.7535 131.295 18.0479C130.795 18.4534 130.297 18.8296 129.771 19.2319C127.384 21.0636 124.943 22.8396 122.79 24.9951C120.509 27.2552 118.619 29.921 117.541 33.0152C117.41 33.4208 117.278 33.8231 117.175 34.2287C116.964 35.0627 118.224 35.4127 118.433 34.5786C119.222 31.6153 120.849 29.0051 122.896 26.7712C124.866 24.6713 127.121 22.8952 129.406 21.1715C129.928 20.7659 130.455 20.3636 131.006 19.958C131.27 19.7454 131.529 19.5557 131.793 19.3398C131.818 19.5034 131.818 19.6636 131.847 19.7977C132.081 22.2214 132.213 24.6713 132.267 27.1211C132.37 30.5653 132.37 34.039 132.03 37.4864C132.004 37.8364 132.344 38.1602 132.684 38.1602C133.079 38.1602 133.316 37.8364 133.342 37.4864C133.657 34.3072 133.682 31.0789 133.605 27.9029C133.58 25.2077 133.448 22.5452 133.211 19.9319Z" fill="#1D1D1B"/>
<mask id="mask1_355_24" style="mask-type:luminance" maskUnits="userSpaceOnUse" x="20" y="3" width="45" height="49">
<path d="M20.704 3.10669H64.2347V51.3875H20.704V3.10669Z" fill="white"/>
</mask>
<g mask="url(#mask1_355_24)">
<path d="M61.3214 27.6052C60.5097 26.7973 59.6146 26.2314 58.62 25.7212C58.4628 25.6394 58.3024 25.5053 58.1452 25.3974C58.0938 25.3712 58.0682 25.345 58.0136 25.2894C57.8853 25.1815 57.7538 25.0735 57.6222 24.9656C55.7325 23.4054 53.8941 21.7896 52.0044 20.2033C49.2228 17.8581 46.4155 15.5718 43.528 13.3901C40.5603 11.13 37.5156 8.9745 34.3393 7.0905C32.9245 6.25644 31.4807 5.47471 29.9568 4.80092C29.222 4.48038 28.4617 4.15656 27.7013 3.88836C26.7548 3.56454 25.5998 3.10663 24.602 3.48277C23.3187 3.94069 22.9241 5.23267 22.6353 6.44615C22.4781 7.11667 22.3209 7.79046 22.1894 8.43809C21.875 10.0539 21.6632 11.6958 21.4803 13.3378C21.0857 16.9455 20.8772 20.5794 20.797 24.2133C20.6943 27.929 20.72 31.6447 20.797 35.3309C20.8772 38.4022 21.0087 41.4702 21.2718 44.5121C21.3745 45.67 21.4803 46.854 21.6375 48.0119C21.7178 48.6301 21.7948 49.2777 22.0065 49.8959C22.1092 50.2459 22.2407 50.5697 22.5038 50.8379C22.9754 51.3514 23.8962 51.3776 24.3678 50.8379C24.7881 50.3538 24.8651 49.6539 24.525 49.1436V49.1142C24.4448 48.846 24.3935 48.5778 24.3422 48.3357C24.2876 48.0119 24.2363 47.6619 24.185 47.3381C24.185 47.2858 24.185 47.2596 24.1561 47.204C24.1304 47.0961 24.1304 46.962 24.1048 46.854C24.0791 46.612 24.0534 46.3438 24.0245 46.1017C23.739 43.3281 23.6075 40.5544 23.5016 37.7807C23.37 34.2286 23.3187 30.6732 23.37 27.1211C23.4214 23.4578 23.5529 19.7977 23.8417 16.1376C23.9219 15.3036 23.9989 14.4662 24.0791 13.6322C24.1304 13.2299 24.1561 12.8243 24.2106 12.422C24.2106 12.314 24.2363 12.2323 24.2363 12.1243V12.0981C24.262 11.9084 24.2876 11.722 24.3133 11.5323C24.525 10.1062 24.7625 8.7063 25.1025 7.30638C25.1795 7.00873 25.2598 6.68819 25.34 6.39054C25.3656 6.28261 25.417 6.17467 25.4426 6.06673C25.4426 6.04057 25.4683 6.0144 25.4683 6.0144C25.5228 6.0144 25.5485 6.04057 25.5742 6.04057C25.68 6.06673 25.7859 6.09617 25.8886 6.12234C26.0458 6.17467 26.2319 6.23027 26.3891 6.28261C26.7035 6.39054 27.0179 6.49848 27.3323 6.60642C27.6756 6.74052 27.99 6.84846 28.3301 7.00873C28.3558 7.00873 28.3815 7.03817 28.4103 7.03817C28.4617 7.06434 28.513 7.0905 28.5675 7.11667C28.7504 7.19844 28.9333 7.28021 29.1194 7.35871C29.8252 7.68252 30.5343 8.05867 31.2176 8.43809C34.3393 10.1324 37.307 12.1538 40.1689 14.2536C41.664 15.3559 43.1334 16.4876 44.6028 17.6455C44.683 17.6978 44.9429 17.9399 44.6541 17.6978C44.7343 17.7796 44.8145 17.8319 44.9172 17.9137C45.1033 18.0478 45.2862 18.2081 45.4434 18.3454C45.7835 18.6136 46.1268 18.8819 46.4668 19.1795C47.1213 19.7159 47.779 20.2556 48.4335 20.7953C50.535 22.5452 52.6076 24.3213 54.709 26.0973C55.3635 26.6632 56.0469 27.229 56.7303 27.7393C56.8875 27.8472 57.019 27.9813 57.2019 28.0631C57.542 28.2528 57.911 28.4131 58.2254 28.6028C58.4339 28.7369 58.7483 28.871 58.8799 29.0574C58.8542 29.0313 58.6713 28.871 58.8542 29.0313C58.9088 29.0869 58.9601 29.113 59.0114 29.1654C59.1173 29.2733 59.2488 29.3812 59.3547 29.4892C59.5376 29.6789 59.7205 29.8653 59.9033 30.0812C59.9579 30.1368 59.9835 30.1891 60.0349 30.2447C60.0349 30.2447 60.0638 30.2709 60.0894 30.2971C60.1151 30.3232 60.1408 30.3527 60.1408 30.3788C60.1921 30.4312 60.221 30.4868 60.2466 30.5391C60.561 30.997 60.8241 31.5073 61.0583 32.0208C61.3214 32.6652 62.3192 32.8549 62.8454 32.5049C63.4999 32.0731 63.6058 31.347 63.317 30.6732C62.9224 29.5153 62.2133 28.4654 61.3214 27.6052ZM24.2106 47.4199C24.2363 47.554 24.2106 47.5017 24.2106 47.4199Z" fill="#1D1D1B"/>
</g>
<path d="M45.9696 29.463C43.2136 27.337 40.3774 25.3712 37.4643 23.4872C36.7552 23.0293 36.0205 22.5714 35.2858 22.1135C34.6281 21.7079 33.9479 21.2238 33.2389 20.9033C32.6101 20.6056 31.8465 20.4159 31.2433 20.8477C30.5086 21.3579 30.5599 22.3293 30.5599 23.1634C30.5343 26.6894 31.1118 30.2153 32.2668 33.5287C32.3726 33.8525 32.5042 34.2025 32.5812 34.5525C32.6357 34.7945 32.6614 35.115 32.6101 35.3047C32.6101 35.3047 32.5555 35.4127 32.5555 35.4388C32.5299 35.465 32.5042 35.5206 32.5042 35.5206C32.424 35.573 32.347 35.6024 32.1898 35.6547C31.7695 35.7627 31.4005 35.8968 31.1118 36.2467C30.5888 36.8388 30.4316 37.7023 30.5888 38.4546C30.7717 39.3704 31.4262 40.0965 32.0326 40.7703C32.6101 41.3885 33.5276 40.4465 32.9501 39.8283C32.5042 39.3442 31.9524 38.8045 31.8465 38.1046C31.7951 37.7546 31.8754 37.2149 32.2154 37.0546C32.5042 36.9205 32.8443 36.9205 33.133 36.7308C33.3961 36.5706 33.6046 36.3285 33.7362 36.0603C33.9993 35.4945 33.9736 34.8207 33.8421 34.2286C33.7105 33.5548 33.4218 32.9072 33.2389 32.2629C33.0015 31.4811 32.7929 30.7027 32.6101 29.921C32.2411 28.3313 32.0326 26.7155 31.9267 25.0736C31.8754 24.2951 31.8754 23.4872 31.901 22.7055C31.901 22.4896 31.8754 22.1658 32.0037 22.0055C31.978 22.0317 32.0582 22.0055 32.1096 22.0055C32.2411 22.0055 32.3726 22.0317 32.5299 22.0873C33.1587 22.3032 33.7362 22.7578 34.288 23.1078C34.9971 23.5396 35.7061 23.9975 36.4151 24.4554C39.1711 26.2314 41.8469 28.0893 44.4713 30.0289C46.8069 31.7788 49.38 33.7707 50.2206 36.7308C50.4548 37.5649 51.7157 37.2149 51.4783 36.3808C50.5864 33.339 48.2764 31.2653 45.9696 29.463Z" fill="#1D1D1B"/>
<mask id="mask2_355_24" style="mask-type:luminance" maskUnits="userSpaceOnUse" x="-1" y="45" width="176" height="37">
<path d="M174.293 45.8107H-0.650635V81.816H174.293V45.8107Z" fill="white"/>
</mask>
<g mask="url(#mask2_355_24)">
<path d="M6.15069 71.1915C6.20202 71.1915 6.22769 71.2242 6.22769 71.2831V71.584C6.22769 71.6559 6.20202 71.6886 6.15069 71.6886H0.41419C0.343607 71.6886 0.311523 71.6559 0.311523 71.584V71.2831C0.311523 71.2242 0.343607 71.1915 0.41419 71.1915C1.75527 71.1915 2.48357 70.6027 2.59586 69.4252C2.62794 69.0785 2.66323 68.5061 2.69852 67.7113C2.74023 66.91 2.85252 65.1928 3.03219 62.5565C3.21186 59.9235 3.30169 57.7909 3.30169 56.1587V55.7008C3.30169 55.3606 3.1124 55.0826 2.73702 54.8635C2.36807 54.6378 2.09536 54.5233 1.91569 54.5233C1.74244 54.5233 1.65902 54.4906 1.65902 54.4186V54.1177C1.65902 54.049 1.69111 54.0131 1.76169 54.0131H5.31652C5.47052 54.0392 5.59886 54.1308 5.70152 54.2878L11.4637 67.3842C11.5054 67.4464 11.5343 67.4987 11.5535 67.5412C11.5792 67.587 11.6369 67.6066 11.7332 67.6066C11.8359 67.6001 11.9129 67.5216 11.9642 67.3711L17.675 54.5233C17.8451 54.1831 17.9991 54.0131 18.137 54.0131H21.7175C21.7753 54.0131 21.8074 54.049 21.8074 54.1177V54.4186C21.8074 54.4906 21.7881 54.5233 21.756 54.5233C21.5058 54.5233 21.2042 54.6084 20.8449 54.7719C20.2962 55.0172 20.0235 55.3868 20.0235 55.884L20.755 69.7392C20.7711 70.1677 20.9924 70.5177 21.4224 70.7859C21.8491 71.0574 22.4041 71.1915 23.0907 71.1915C23.1581 71.1915 23.1934 71.2242 23.1934 71.2831V71.584C23.1934 71.6559 23.1581 71.6886 23.0907 71.6886H16.1094C16.0388 71.6886 16.0067 71.6559 16.0067 71.584V71.2831C16.0067 71.2242 16.0388 71.1915 16.1094 71.1915C17.5724 71.1915 18.3039 70.8251 18.3039 70.0925L17.6622 58.1212C17.6526 58.0427 17.6269 58.0035 17.5852 58.0035C17.5499 58.0035 17.521 58.0395 17.4954 58.1081L11.3867 71.5971C11.3514 71.6592 11.2584 71.6886 11.1044 71.6886C10.9504 71.6886 10.8605 71.6559 10.8349 71.584L4.81602 58.082C4.76469 57.961 4.71336 57.8988 4.66202 57.8988C4.61711 57.8988 4.59786 57.9904 4.59786 58.1736C4.59786 58.5595 4.4984 60.3716 4.30269 63.6162C4.10377 66.8609 4.00752 68.8855 4.00752 69.6869V70.1971C4.11019 70.678 4.5754 70.9887 5.40636 71.1261C5.63736 71.1719 5.8844 71.1915 6.15069 71.1915Z" fill="black"/>
<path d="M31.8351 71.584C31.8351 71.6559 31.7998 71.6886 31.7324 71.6886H25.4441C25.3831 71.6886 25.3542 71.6559 25.3542 71.584V71.2831C25.3542 71.2242 25.4056 71.1915 25.5082 71.1915C26.628 71.1391 27.3851 70.5308 27.7797 69.3598L32.7976 54.5495C32.804 54.5331 32.8104 54.5168 32.8104 54.4971L32.6821 54.0785C32.6821 54.036 32.6981 54.0131 32.7334 54.0131H35.1846C35.2006 54.0229 35.2231 54.0327 35.2487 54.0392C35.2808 54.049 35.3065 54.0752 35.3257 54.1177L40.5232 68.9935C40.6323 69.2224 40.7222 69.4252 40.7927 69.6084C40.8697 69.7916 40.95 69.9584 41.0366 70.1056C41.2323 70.4555 41.5563 70.7205 42.0119 70.9036C42.3873 71.0966 42.7306 71.1915 43.0386 71.1915C43.106 71.1915 43.1412 71.2275 43.1412 71.2961V71.584C43.1412 71.6559 43.106 71.6886 43.0386 71.6886H35.5182C35.4477 71.6886 35.4156 71.6559 35.4156 71.584V71.2831C35.4156 71.2242 35.5632 71.1849 35.8647 71.1653C36.1727 71.149 36.423 71.1326 36.6219 71.113C37.7577 70.992 38.3287 70.5995 38.3287 69.9355C38.3287 69.8831 38.3223 69.8243 38.3159 69.7523L36.4551 64.4143C36.4455 64.398 36.4294 64.362 36.4037 64.3096C36.3075 64.0218 36.1375 63.8779 35.8904 63.8779H31.5271C31.2768 63.8779 31.0843 64.0185 30.9496 64.2966C30.9239 64.3489 30.9111 64.3816 30.9111 64.3881L29.0631 69.8962V70.014C29.0631 70.2331 29.1722 70.4294 29.3967 70.6027C29.8908 70.9952 30.5646 71.1915 31.4116 71.1915H31.7324C31.7998 71.1915 31.8351 71.2242 31.8351 71.2831V71.584ZM35.4669 62.4911C35.6113 62.4911 35.6851 62.4256 35.6851 62.2948C35.6851 62.2359 35.6722 62.1607 35.6466 62.0724L33.8114 56.9306C33.7248 56.7148 33.6638 56.6036 33.6317 56.6036C33.5868 56.6036 33.5195 56.718 33.4264 56.9437L31.7067 62.0724C31.6715 62.1607 31.6554 62.2523 31.6554 62.3471C31.6554 62.4453 31.7196 62.4911 31.8479 62.4911H35.4669Z" fill="black"/>
<path d="M45.4289 71.6886C45.3583 71.6886 45.3262 71.6068 45.3262 71.44V71.283C45.3262 71.2241 45.3583 71.1914 45.4289 71.1914C45.4802 71.1914 45.5572 71.1849 45.6599 71.1653C45.7626 71.1489 45.8684 71.1325 45.9807 71.1129C46.0994 71.0966 46.2053 71.0802 46.3016 71.0606C46.4042 71.0344 46.4748 71.0181 46.5197 71.0083C47.3571 70.8185 47.7774 70.3345 47.7774 69.556V56.3157C47.7774 55.6026 47.4951 55.0956 46.9304 54.798C46.5871 54.6148 46.2246 54.5233 45.8396 54.5233H45.3776C45.307 54.5233 45.2749 54.4905 45.2749 54.4186V54.1177C45.2749 54.049 45.3262 54.013 45.4289 54.013L52.1792 53.8298H53.4241C54.8678 53.928 56.0806 54.4644 57.0559 55.4391C58.0377 56.4171 58.5317 57.6175 58.5317 59.037C58.5317 60.4598 57.9478 61.5686 56.7864 62.3602C56.4271 62.6055 56.0357 62.8246 55.6186 63.0143L59.3402 69.2158C59.9883 70.3083 60.8578 71.0737 61.9454 71.5185C62.0384 71.5381 62.0866 71.5937 62.0866 71.6886C62.0866 71.8979 61.9486 72.0026 61.6759 72.0026C59.8343 72.0026 58.3681 71.2895 57.2741 69.8569C57.0431 69.5429 56.8057 69.1897 56.5682 68.7972L53.3856 63.7078L50.4596 63.5638H50.3569C50.235 63.5638 50.1772 63.626 50.1772 63.747V69.5168C50.1772 69.9812 50.2992 70.3246 50.5494 70.5503C50.8061 70.7793 51.2456 70.9298 51.8712 71.0083C52.0317 71.0344 52.2338 71.0737 52.4744 71.126C52.7118 71.1718 52.8754 71.1914 52.9621 71.1914C53.0455 71.1914 53.0904 71.2241 53.0904 71.283V71.5839C53.0904 71.6559 53.0551 71.6886 52.9877 71.6886H45.4289ZM51.1654 54.4971C51.0692 54.4971 50.9665 54.5036 50.8574 54.5102C50.7451 54.5102 50.6039 54.5167 50.4339 54.5233C50.2607 54.5233 50.1772 54.5887 50.1772 54.7195V62.3078L50.2029 62.6873C50.2189 62.8639 50.2959 62.9555 50.4339 62.962L51.6787 63.0405C53.9887 63.0405 55.3779 62.2032 55.8496 60.5285C56.0036 60.0052 56.0806 59.4033 56.0806 58.723C56.0806 57.4081 55.6763 56.368 54.8742 55.6092C54.0689 54.8503 53.0391 54.4709 51.7814 54.4709C51.6691 54.4709 51.5632 54.4775 51.4606 54.484C51.3643 54.484 51.2681 54.4905 51.1654 54.4971Z" fill="black"/>
<path d="M82.9903 63.9171C83.0834 63.9171 83.1315 63.9825 83.1315 64.1133C83.1315 64.2442 83.0834 64.3325 82.9903 64.375C82.7754 64.4731 82.5476 64.5549 82.3102 64.6236C82.0792 64.6857 81.8642 64.774 81.6685 64.8852C81.2129 65.1404 80.9883 65.546 80.9883 66.102V70.1709C80.9883 70.3541 80.5552 70.6027 79.6922 70.9167C78.8259 71.2241 78.1265 71.4465 77.5875 71.5839C75.0529 72.2185 72.791 72.153 70.7987 71.3877C68.5143 70.498 66.8973 68.8986 65.9477 66.5861C65.4664 65.4347 65.229 64.29 65.229 63.1452C65.229 62.0036 65.3381 61.0453 65.5627 60.2668C66.2364 57.8955 67.6481 56.0736 69.7977 54.798C71.1901 53.9607 72.6627 53.542 74.2123 53.542C75.7588 53.542 77.4014 53.8625 79.1403 54.4971C79.4548 54.6116 79.6344 54.6672 79.6793 54.6672H79.8205L80.321 54.5363H80.629C80.7124 54.5363 80.7573 54.5854 80.7573 54.6802V58.8538C80.7573 59.0108 80.6675 59.0893 80.4878 59.0893H80.4365C80.2825 59.073 80.1734 58.8604 80.1157 58.4482C80.0964 58.3697 80.0836 58.3109 80.0772 58.2651C79.2623 55.6484 77.5362 54.3401 74.8925 54.3401C72.7782 54.3401 71.0938 55.1578 69.8362 56.7867C68.5785 58.4188 67.9497 60.3584 67.9497 62.6087C67.9497 64.8525 68.5817 66.8347 69.849 68.5617C71.1131 70.2887 72.8552 71.1522 75.0722 71.1522C76.2079 71.1522 77.1448 70.9755 77.8827 70.6157C78.165 70.4686 78.3864 70.2854 78.55 70.0662V66.6384C78.55 65.8632 78.3318 65.2908 77.8955 64.9245C77.4592 64.5582 76.6571 64.375 75.4957 64.375C75.409 64.375 75.3673 64.303 75.3673 64.1526C75.3673 63.9956 75.409 63.9171 75.4957 63.9171H82.9903Z" fill="black"/>
<path d="M91.8755 71.584C91.8755 71.6559 91.8402 71.6886 91.7728 71.6886H85.4845C85.4235 71.6886 85.3947 71.6559 85.3947 71.584V71.2831C85.3947 71.2242 85.446 71.1915 85.5487 71.1915C86.6684 71.1391 87.4255 70.5308 87.8202 69.3598L92.838 54.5495C92.8444 54.5331 92.8508 54.5168 92.8508 54.4971L92.7225 54.0785C92.7225 54.036 92.7385 54.0131 92.7738 54.0131H95.225C95.241 54.0229 95.2635 54.0327 95.2892 54.0392C95.3212 54.049 95.3469 54.0752 95.3662 54.1177L100.564 68.9935C100.673 69.2224 100.763 69.4252 100.833 69.6084C100.91 69.7916 100.99 69.9584 101.077 70.1056C101.273 70.4555 101.597 70.7205 102.052 70.9036C102.428 71.0966 102.771 71.1915 103.079 71.1915C103.146 71.1915 103.182 71.2275 103.182 71.2961V71.584C103.182 71.6559 103.146 71.6886 103.079 71.6886H95.5587C95.4881 71.6886 95.456 71.6559 95.456 71.584V71.2831C95.456 71.2242 95.6036 71.1849 95.9052 71.1653C96.2132 71.149 96.4634 71.1326 96.6623 71.113C97.7981 70.992 98.3692 70.5995 98.3692 69.9355C98.3692 69.8831 98.3627 69.8243 98.3563 69.7523L96.4955 64.4143C96.4859 64.398 96.4698 64.362 96.4442 64.3096C96.3479 64.0218 96.1779 63.8779 95.9308 63.8779H91.5675C91.3172 63.8779 91.1247 64.0185 90.99 64.2966C90.9643 64.3489 90.9515 64.3816 90.9515 64.3881L89.1035 69.8962V70.014C89.1035 70.2331 89.2126 70.4294 89.4372 70.6027C89.9312 70.9952 90.605 71.1915 91.452 71.1915H91.7728C91.8402 71.1915 91.8755 71.2242 91.8755 71.2831V71.584ZM95.5073 62.4911C95.6517 62.4911 95.7255 62.4256 95.7255 62.2948C95.7255 62.2359 95.7127 62.1607 95.687 62.0724L93.8518 56.9306C93.7652 56.7148 93.7042 56.6036 93.6722 56.6036C93.6272 56.6036 93.5599 56.718 93.4668 56.9437L91.7472 62.0724C91.7119 62.1607 91.6958 62.2523 91.6958 62.3471C91.6958 62.4453 91.76 62.4911 91.8883 62.4911H95.5073Z" fill="black"/>
<path d="M105.469 71.6886C105.399 71.6886 105.367 71.6068 105.367 71.44V71.283C105.367 71.2241 105.399 71.1914 105.469 71.1914C105.521 71.1914 105.598 71.1849 105.7 71.1653C105.803 71.1489 105.909 71.1325 106.021 71.1129C106.14 71.0966 106.246 71.0802 106.342 71.0606C106.445 71.0344 106.515 71.0181 106.56 71.0083C107.398 70.8185 107.818 70.3345 107.818 69.556V56.3157C107.818 55.6026 107.535 55.0956 106.971 54.798C106.628 54.6148 106.265 54.5233 105.88 54.5233H105.418C105.347 54.5233 105.315 54.4905 105.315 54.4186V54.1177C105.315 54.049 105.367 54.013 105.469 54.013L112.22 53.8298H113.464C114.908 53.928 116.121 54.4644 117.096 55.4391C118.078 56.4171 118.572 57.6175 118.572 59.037C118.572 60.4598 117.988 61.5686 116.827 62.3602C116.467 62.6055 116.076 62.8246 115.659 63.0143L119.381 69.2158C120.029 70.3083 120.898 71.0737 121.986 71.5185C122.079 71.5381 122.127 71.5937 122.127 71.6886C122.127 71.8979 121.989 72.0026 121.716 72.0026C119.875 72.0026 118.409 71.2895 117.314 69.8569C117.083 69.5429 116.846 69.1897 116.609 68.7972L113.426 63.7078L110.5 63.5638H110.397C110.275 63.5638 110.218 63.626 110.218 63.747V69.5168C110.218 69.9812 110.34 70.3246 110.59 70.5503C110.846 70.7793 111.286 70.9298 111.912 71.0083C112.072 71.0344 112.274 71.0737 112.515 71.126C112.752 71.1718 112.916 71.1914 113.002 71.1914C113.086 71.1914 113.131 71.2241 113.131 71.283V71.5839C113.131 71.6559 113.096 71.6886 113.028 71.6886H105.469ZM111.206 54.4971C111.11 54.4971 111.007 54.5036 110.898 54.5102C110.786 54.5102 110.644 54.5167 110.474 54.5233C110.301 54.5233 110.218 54.5887 110.218 54.7195V62.3078L110.243 62.6873C110.259 62.8639 110.336 62.9555 110.474 62.962L111.719 63.0405C114.029 63.0405 115.418 62.2032 115.89 60.5285C116.044 60.0052 116.121 59.4033 116.121 58.723C116.121 57.4081 115.717 56.368 114.915 55.6092C114.109 54.8503 113.079 54.4709 111.822 54.4709C111.71 54.4709 111.604 54.4775 111.501 54.484C111.405 54.484 111.308 54.4905 111.206 54.4971Z" fill="black"/>
<path d="M126.951 56.0148C126.951 55.0205 126.386 54.5233 125.257 54.5233C125.077 54.5233 124.987 54.4906 124.987 54.4186V54.1177C124.987 54.049 125.019 54.0131 125.09 54.0131H131.25C131.308 54.0131 131.34 54.049 131.34 54.1177V54.4186C131.34 54.4906 131.16 54.5233 130.801 54.5233C130.441 54.5233 130.108 54.6411 129.8 54.8766C129.498 55.1055 129.35 55.5831 129.35 56.3157V69.6869C129.35 70.691 129.918 71.1915 131.057 71.1915C131.237 71.1915 131.327 71.2242 131.327 71.2831V71.584C131.327 71.6559 131.291 71.6886 131.224 71.6886H125.064C124.994 71.6886 124.961 71.6559 124.961 71.584V71.2831C124.961 71.2242 125.141 71.1915 125.5 71.1915C125.866 71.1915 126.2 71.0737 126.501 70.8382C126.8 70.6027 126.951 70.1252 126.951 69.3991V56.0148Z" fill="black"/>
<path d="M138.939 71.283C138.939 71.2241 138.978 71.1914 139.055 71.1914H139.401C140.203 71.1914 140.851 71.0181 141.339 70.6681C141.827 70.3116 142.071 69.9027 142.071 69.4383V55.5568C142.071 55.3835 142.032 55.2886 141.955 55.269C141.885 55.2428 141.804 55.2232 141.711 55.2036H136.989C136.225 55.3704 135.725 55.969 135.487 56.996C135.359 57.5455 135.282 57.8988 135.256 58.0558C135.23 58.2128 135.182 58.2913 135.115 58.2913H134.897C134.845 58.2913 134.82 58.2749 134.82 58.2389V57.8203L135.282 53.9214C135.333 53.6598 135.413 53.5289 135.526 53.5289C135.635 53.5289 135.757 53.614 135.885 53.7775C136.02 53.9345 136.273 54.013 136.642 54.013H149.899C150.249 54.013 150.457 53.9738 150.528 53.8953C150.605 53.8102 150.675 53.7252 150.746 53.6467C150.813 53.5682 150.9 53.5289 151.003 53.5289C151.105 53.5289 151.169 53.5747 151.195 53.6598C151.221 53.7383 151.24 53.8266 151.259 53.9214L151.721 57.8203V58.2389C151.721 58.2749 151.696 58.2913 151.644 58.2913H151.426C151.356 58.2913 151.311 58.2324 151.285 58.1081C151.157 57.2708 150.967 56.6101 150.72 56.1194C150.47 55.6321 150.082 55.3279 149.552 55.2036H144.817C144.721 55.2232 144.637 55.2428 144.56 55.269C144.49 55.2886 144.458 55.3835 144.458 55.5568V69.4383C144.458 69.9027 144.701 70.3116 145.189 70.6681C145.677 71.0181 146.322 71.1914 147.127 71.1914H147.486C147.554 71.1914 147.589 71.2241 147.589 71.283V71.5839C147.589 71.6559 147.554 71.6886 147.486 71.6886H139.042C138.971 71.6886 138.939 71.6559 138.939 71.5839V71.283Z" fill="black"/>
<path d="M160.632 71.584C160.632 71.6559 160.597 71.6886 160.53 71.6886H154.241C154.18 71.6886 154.151 71.6559 154.151 71.584V71.2831C154.151 71.2242 154.203 71.1915 154.305 71.1915C155.425 71.1391 156.182 70.5308 156.577 69.3598L161.595 54.5495C161.601 54.5331 161.608 54.5168 161.608 54.4971L161.479 54.0785C161.479 54.036 161.495 54.0131 161.531 54.0131H163.982C163.998 54.0229 164.02 54.0327 164.046 54.0392C164.078 54.049 164.104 54.0752 164.123 54.1177L169.32 68.9935C169.43 69.2224 169.519 69.4252 169.59 69.6084C169.667 69.7916 169.747 69.9584 169.834 70.1056C170.03 70.4555 170.354 70.7205 170.809 70.9036C171.185 71.0966 171.528 71.1915 171.836 71.1915C171.903 71.1915 171.938 71.2275 171.938 71.2961V71.584C171.938 71.6559 171.903 71.6886 171.836 71.6886H164.315C164.245 71.6886 164.213 71.6559 164.213 71.584V71.2831C164.213 71.2242 164.36 71.1849 164.662 71.1653C164.97 71.149 165.22 71.1326 165.419 71.113C166.555 70.992 167.126 70.5995 167.126 69.9355C167.126 69.8831 167.12 69.8243 167.113 69.7523L165.252 64.4143C165.243 64.398 165.227 64.362 165.201 64.3096C165.105 64.0218 164.935 63.8779 164.688 63.8779H160.324C160.074 63.8779 159.882 64.0185 159.747 64.2966C159.721 64.3489 159.708 64.3816 159.708 64.3881L157.86 69.8962V70.014C157.86 70.2331 157.969 70.4294 158.194 70.6027C158.688 70.9952 159.362 71.1915 160.209 71.1915H160.53C160.597 71.1915 160.632 71.2242 160.632 71.2831V71.584ZM164.264 62.4911C164.409 62.4911 164.482 62.4256 164.482 62.2948C164.482 62.2359 164.469 62.1607 164.444 62.0724L162.609 56.9306C162.522 56.7148 162.461 56.6036 162.429 56.6036C162.384 56.6036 162.317 56.718 162.224 56.9437L160.504 62.0724C160.469 62.1607 160.453 62.2523 160.453 62.3471C160.453 62.4453 160.517 62.4911 160.645 62.4911H164.264Z" fill="black"/>
</g>
<path d="M11.157 82.7879C11.157 82.9187 11.1121 82.9841 11.0287 82.9841C10.9517 82.9841 10.8875 82.9056 10.8362 82.7486C10.7848 82.5916 10.6886 82.4444 10.5538 82.3038C10.4159 82.1566 10.249 82.0356 10.0533 81.9374C9.64909 81.7379 9.21917 81.6365 8.75717 81.6365C8.29517 81.6365 7.89734 81.7019 7.56367 81.8328C7.23001 81.9571 6.94126 82.1337 6.70384 82.3692C6.19692 82.8762 5.94667 83.5565 5.94667 84.4102C5.94667 85.3522 6.22901 86.1306 6.79367 86.739C7.35834 87.3507 8.07701 87.6549 8.94967 87.6549C9.93142 87.6549 10.6886 87.1969 11.2212 86.2811C11.2533 86.2222 11.2918 86.1862 11.3367 86.1764C11.3688 86.1764 11.404 86.2157 11.4393 86.2942C11.4714 86.3727 11.4907 86.4643 11.4907 86.5689C11.4907 86.7357 11.3527 86.9484 11.08 87.21C10.8041 87.4717 10.4704 87.681 10.079 87.838C9.69401 87.995 9.23842 88.0735 8.71867 88.0735C8.20534 88.0735 7.71126 87.9885 7.24284 87.8249C6.78084 87.6516 6.38621 87.4161 6.06217 87.1184C5.38521 86.4904 5.04834 85.712 5.04834 84.7765C5.04834 83.7299 5.38842 82.8794 6.07501 82.2253C6.75838 81.5711 7.65992 81.244 8.78284 81.244C9.59455 81.244 10.2651 81.3585 10.7977 81.5842C10.9003 81.63 10.9677 81.6725 11.003 81.715C11.0608 81.8033 11.096 81.9374 11.1057 82.1206C11.1217 82.3038 11.1313 82.4313 11.1313 82.5C11.1474 82.657 11.157 82.7551 11.157 82.7879Z" fill="black"/>
<path d="M15.3492 88.0343C15.1759 88.0343 15.0925 87.9722 15.0925 87.8511C15.0925 87.7563 15.1471 87.7072 15.2594 87.7072L15.4904 87.7334C15.6861 87.7334 15.8176 87.6254 15.8882 87.4063C15.9395 87.2166 15.9652 86.8797 15.9652 86.3989V82.9318C15.9652 82.4543 15.9427 82.1403 15.901 81.9898C15.8561 81.8426 15.8016 81.7412 15.7342 81.6889C15.6732 81.63 15.593 81.5973 15.4904 81.5973L15.2594 81.6235C15.1471 81.6235 15.0925 81.5777 15.0925 81.4796C15.0925 81.3585 15.1759 81.2964 15.3492 81.2964C15.5289 81.2964 15.6957 81.3095 15.8497 81.3356C16.0101 81.3618 16.1769 81.3749 16.3502 81.3749C16.5202 81.3749 16.6839 81.3618 16.8379 81.3356C16.9983 81.3095 17.1651 81.2964 17.3384 81.2964C17.518 81.2964 17.6079 81.3585 17.6079 81.4796C17.6079 81.5777 17.5469 81.6235 17.4282 81.6235L17.1972 81.5973C16.9983 81.5973 16.8667 81.7085 16.7994 81.9244C16.748 82.101 16.7224 82.4346 16.7224 82.9318V85.7055C16.7224 86.4218 16.7384 87.0138 16.7737 87.4848C17.0047 87.5568 17.2614 87.5895 17.5437 87.5895C17.8324 87.5895 18.0827 87.5731 18.288 87.5371C18.4998 87.5044 18.6859 87.4554 18.8399 87.3932C19.1286 87.2722 19.3564 87.0661 19.52 86.7783C19.5778 86.6573 19.6387 86.5951 19.6997 86.5951C19.7671 86.5951 19.8024 86.6442 19.8024 86.7391C19.8024 86.7848 19.7927 86.8372 19.7767 86.8961C19.751 86.9844 19.7125 87.1119 19.6612 87.2755C19.6099 87.4423 19.5649 87.5731 19.5329 87.668C19.5072 87.7563 19.4751 87.8315 19.443 87.8904C19.366 88.0016 19.2569 88.0605 19.1222 88.0605C18.9842 88.0605 18.8527 88.0539 18.7244 88.0474C18.6024 88.0474 18.4741 88.0408 18.3394 88.0343C18.211 88.0343 18.0699 88.0278 17.9159 88.0212C17.7619 88.0114 17.5854 88.0016 17.3897 87.9951C17.1908 87.9852 17.0207 87.9754 16.8764 87.9689C16.7288 87.9591 16.5844 87.9558 16.44 87.9558C16.3021 87.9558 16.1866 87.9591 16.0935 87.9689C15.9973 87.9754 15.9139 87.9852 15.8369 87.9951C15.7599 88.0016 15.6829 88.0114 15.6059 88.0212C15.5289 88.0278 15.4422 88.0343 15.3492 88.0343Z" fill="black"/>
<path d="M24.1387 80.4459C23.9398 80.508 23.8243 80.5375 23.7922 80.5375C23.7665 80.5375 23.7344 80.5211 23.7023 80.4851C23.6767 80.4426 23.6638 80.4034 23.6638 80.3674C23.6638 80.3151 23.6959 80.2693 23.7665 80.2235L25.3963 79.3338C25.4381 79.3076 25.4669 79.2946 25.4862 79.2946C25.5118 79.2946 25.5407 79.3076 25.576 79.3338C25.6081 79.36 25.6434 79.3992 25.6787 79.4516C25.7557 79.5758 25.7942 79.6707 25.7942 79.7394C25.7942 79.8015 25.7846 79.8408 25.7685 79.8571C25.7589 79.8768 25.7364 79.8931 25.7043 79.9095L24.1387 80.4459ZM23.7793 88.0342C23.5644 88.0342 23.4585 87.9721 23.4585 87.8511C23.4585 87.7562 23.5163 87.7071 23.6382 87.7071L23.8692 87.7333C24.0488 87.7333 24.1676 87.6483 24.2285 87.4716C24.3055 87.2819 24.344 86.9221 24.344 86.3988L24.3183 82.9317C24.3183 82.392 24.2863 82.0519 24.2285 81.9112C24.1772 81.7738 24.1194 81.6855 24.0617 81.6496C24.0007 81.6168 23.9269 81.5972 23.8435 81.5972L23.6125 81.6234C23.5002 81.6234 23.4457 81.5776 23.4457 81.4795C23.4457 81.3585 23.5291 81.2963 23.7023 81.2963C23.882 81.2963 24.0488 81.3094 24.2028 81.3356C24.3633 81.3617 24.5301 81.3748 24.7033 81.3748C24.883 81.3748 25.0498 81.3617 25.2038 81.3356C25.3578 81.3094 25.5183 81.2963 25.6915 81.2963C25.8712 81.2963 25.961 81.3585 25.961 81.4795C25.961 81.5776 25.9033 81.6234 25.7942 81.6234L25.5632 81.5972C25.3835 81.5972 25.2616 81.6855 25.2038 81.8589C25.1268 82.0421 25.0883 82.4018 25.0883 82.9317L25.114 86.3988C25.114 86.9221 25.1429 87.259 25.2038 87.4062C25.2616 87.5469 25.3226 87.6385 25.3835 87.681C25.4509 87.717 25.5279 87.7333 25.6145 87.7333L25.8455 87.7071C25.9642 87.7071 26.0252 87.7562 26.0252 87.8511C26.0252 87.9721 25.9225 88.0342 25.7172 88.0342C25.6049 88.0342 25.4894 88.0211 25.3707 87.995C24.9761 87.9361 24.6392 87.9263 24.3568 87.9688C24.0745 88.0113 23.882 88.0342 23.7793 88.0342Z" fill="black"/>
<path d="M30.0242 88.0343C29.8189 88.0343 29.7162 87.9722 29.7162 87.8511C29.7162 87.7563 29.7707 87.7072 29.883 87.7072L30.1269 87.7334C30.3129 87.7334 30.4413 87.6254 30.5119 87.4063C30.5632 87.2166 30.5889 86.8797 30.5889 86.3989V82.9449C30.5889 82.4575 30.5664 82.1435 30.5247 82.0029C30.4798 81.8557 30.4252 81.7543 30.3579 81.702C30.2969 81.6431 30.2199 81.6104 30.1269 81.6104L29.883 81.6366C29.7707 81.6366 29.7162 81.5908 29.7162 81.4926C29.7162 81.3618 29.8189 81.2964 30.0242 81.2964L30.653 81.3749C30.7878 81.3749 30.9097 81.3683 31.0124 81.3487L35.4527 86.6082V82.9318C35.4527 82.4543 35.427 82.1403 35.3757 81.9898C35.3308 81.8426 35.2762 81.7412 35.2089 81.6889C35.1479 81.63 35.0677 81.5973 34.965 81.5973L34.7212 81.6235C34.6089 81.6235 34.5544 81.5777 34.5544 81.4796C34.5544 81.3585 34.657 81.2964 34.8624 81.2964C34.9394 81.2964 35.0452 81.3062 35.1832 81.3226C35.3532 81.3585 35.5072 81.3749 35.6452 81.3749C35.7799 81.3749 35.9147 81.3618 36.043 81.3356C36.1778 81.3095 36.3382 81.2964 36.5179 81.2964C36.6975 81.2964 36.7874 81.3585 36.7874 81.4796C36.7874 81.5777 36.7264 81.6235 36.6077 81.6235L36.3767 81.5973C36.1778 81.5973 36.0462 81.7085 35.9789 81.9244C35.9275 82.101 35.9019 82.4346 35.9019 82.9318V87.8904C35.9019 88.0016 35.889 88.0768 35.8634 88.1128C35.8441 88.1455 35.8152 88.1651 35.7735 88.1651C35.7222 88.1651 35.6324 88.0932 35.504 87.9558L31.0637 82.7094V86.3989C31.0637 86.8961 31.0829 87.2166 31.1279 87.354C31.1696 87.4946 31.2209 87.596 31.2819 87.6549C31.3492 87.7072 31.4359 87.7334 31.5385 87.7334L31.7695 87.7072C31.8786 87.7072 31.9364 87.7563 31.9364 87.8511C31.9364 87.9722 31.8401 88.0343 31.654 88.0343C31.4744 88.0343 31.3107 88.0212 31.1664 87.9951C31.0284 87.9689 30.8904 87.9558 30.7557 87.9558C30.6177 87.9558 30.4862 87.9689 30.3579 87.9951C30.2295 88.0212 30.1172 88.0343 30.0242 88.0343Z" fill="black"/>
<path d="M40.5964 88.0343C40.3814 88.0343 40.2755 87.9722 40.2755 87.8511C40.2755 87.7563 40.3333 87.7072 40.4552 87.7072L40.6862 87.7334C40.8659 87.7334 40.9846 87.6483 41.0455 87.4717C41.1225 87.282 41.161 86.9222 41.161 86.3989L41.1354 82.9318C41.1354 82.3921 41.1033 82.0519 41.0455 81.9113C40.9942 81.7739 40.9364 81.6856 40.8787 81.6496C40.8177 81.6169 40.7439 81.5973 40.6605 81.5973L40.4295 81.6235C40.3172 81.6235 40.2627 81.5777 40.2627 81.4796C40.2627 81.3585 40.3461 81.2964 40.5194 81.2964C40.699 81.2964 40.8659 81.3095 41.0199 81.3356C41.1803 81.3618 41.3471 81.3749 41.5204 81.3749C41.7 81.3749 41.8669 81.3618 42.0209 81.3356C42.1749 81.3095 42.3353 81.2964 42.5085 81.2964C42.6882 81.2964 42.778 81.3585 42.778 81.4796C42.778 81.5777 42.7203 81.6235 42.6112 81.6235L42.3802 81.5973C42.2005 81.5973 42.0786 81.6856 42.0209 81.859C41.9439 82.0421 41.9054 82.4019 41.9054 82.9318L41.931 86.3989C41.931 86.9222 41.9599 87.2591 42.0209 87.4063C42.0786 87.5469 42.1396 87.6385 42.2005 87.6811C42.2679 87.717 42.3449 87.7334 42.4315 87.7334L42.6625 87.7072C42.7812 87.7072 42.8422 87.7563 42.8422 87.8511C42.8422 87.9722 42.7395 88.0343 42.5342 88.0343C42.4219 88.0343 42.3064 88.0212 42.1877 87.9951C41.7931 87.9362 41.4562 87.9264 41.1739 87.9689C40.8915 88.0114 40.699 88.0343 40.5964 88.0343Z" fill="black"/>
<path d="M52.7831 82.7879C52.7831 82.9187 52.7382 82.9841 52.6548 82.9841C52.5778 82.9841 52.5136 82.9056 52.4623 82.7486C52.4109 82.5916 52.3147 82.4444 52.1799 82.3038C52.042 82.1566 51.8751 82.0356 51.6794 81.9374C51.2752 81.7379 50.8453 81.6365 50.3833 81.6365C49.9213 81.6365 49.5234 81.7019 49.1898 81.8328C48.8561 81.9571 48.5674 82.1337 48.3299 82.3692C47.823 82.8762 47.5728 83.5565 47.5728 84.4102C47.5728 85.3522 47.8551 86.1306 48.4198 86.739C48.9844 87.3507 49.7031 87.6549 50.5758 87.6549C51.5575 87.6549 52.3147 87.1969 52.8473 86.2811C52.8794 86.2222 52.9179 86.1862 52.9628 86.1764C52.9949 86.1764 53.0301 86.2157 53.0654 86.2942C53.0975 86.3727 53.1168 86.4643 53.1168 86.5689C53.1168 86.7357 52.9788 86.9484 52.7061 87.21C52.4302 87.4717 52.0965 87.681 51.7051 87.838C51.3201 87.995 50.8645 88.0735 50.3448 88.0735C49.8314 88.0735 49.3374 87.9885 48.8689 87.8249C48.4069 87.6516 48.0123 87.4161 47.6883 87.1184C47.0113 86.4904 46.6744 85.712 46.6744 84.7765C46.6744 83.7299 47.0145 82.8794 47.7011 82.2253C48.3845 81.5711 49.286 81.244 50.4089 81.244C51.2206 81.244 51.8912 81.3585 52.4238 81.5842C52.5264 81.63 52.5938 81.6725 52.6291 81.715C52.6869 81.8033 52.7221 81.9374 52.7318 82.1206C52.7478 82.3038 52.7574 82.4313 52.7574 82.5C52.7735 82.657 52.7831 82.7551 52.7831 82.7879Z" fill="black"/>
<path d="M57.4629 87.9557C57.2993 87.9557 57.1453 87.9688 57.0009 87.995C56.8533 88.0212 56.6961 88.0342 56.5261 88.0342C56.3656 88.0342 56.2822 87.9754 56.2822 87.8642C56.2822 87.753 56.3592 87.6941 56.5132 87.6941C56.6736 87.6941 56.7859 87.6679 56.8469 87.6156C56.956 87.5109 57.0651 87.3474 57.1677 87.1184C57.2768 86.8927 57.3763 86.6801 57.4629 86.4773C57.5559 86.2778 57.6618 86.0423 57.7837 85.7708C57.9024 85.5026 58.034 85.205 58.1816 84.8812C58.3259 84.5508 58.4767 84.2008 58.6307 83.8345C59.0414 82.8598 59.3109 82.2056 59.4392 81.872C59.574 81.5318 59.6478 81.3454 59.6574 81.3094C59.6734 81.2767 59.6895 81.2407 59.7087 81.2047C59.7504 81.1459 59.7857 81.1132 59.8114 81.1132C59.8435 81.1132 59.8691 81.1197 59.8884 81.1262C59.9044 81.1262 59.9269 81.1393 59.9526 81.1655C59.9943 81.2276 60.0424 81.3192 60.0937 81.4402C60.1451 81.5645 60.2092 81.7281 60.2862 81.9374C60.3696 82.1467 60.4659 82.3888 60.5686 82.657C60.6776 82.9187 60.7899 83.2032 60.9022 83.5074C61.0209 83.8149 61.1396 84.1191 61.2616 84.4232C61.3899 84.7307 61.5086 85.0251 61.6209 85.3129C61.73 85.5942 61.8326 85.8461 61.9289 86.0717C62.2016 86.7619 62.3781 87.1707 62.4551 87.3016C62.5321 87.4324 62.5962 87.524 62.6476 87.5763C62.731 87.6548 62.8529 87.6941 63.0069 87.6941C63.1609 87.6941 63.2379 87.753 63.2379 87.8642C63.2379 87.9754 63.1384 88.0342 62.9427 88.0342C62.8561 88.0342 62.7791 88.0277 62.7117 88.0212C62.6508 88.0113 62.5866 88.0015 62.5192 87.995C62.3396 87.9688 62.1759 87.9557 62.0316 87.9557L61.0947 88.0342C60.8894 88.0342 60.7867 87.9721 60.7867 87.8511C60.7867 87.7464 60.8413 87.6941 60.9536 87.6941L61.2487 87.7333C61.3674 87.7333 61.4444 87.7072 61.4797 87.6548C61.5214 87.6025 61.5439 87.5338 61.5439 87.4455C61.5439 87.2983 61.4797 87.0628 61.3514 86.739L60.9536 85.7054H58.2842C58.2072 85.9082 58.1334 86.0914 58.0661 86.2549C57.9955 86.4119 57.9377 86.5689 57.8864 86.7259C57.7998 86.981 57.7581 87.1773 57.7581 87.3147C57.7581 87.4553 57.7773 87.56 57.8222 87.6287C57.8736 87.7006 57.9666 87.7333 58.1046 87.7333L58.3997 87.7072C58.5088 87.7072 58.5666 87.7562 58.5666 87.8511C58.5666 87.9721 58.4639 88.0342 58.2586 88.0342L57.4629 87.9557ZM60.7867 85.2867L59.6446 82.3692C59.42 82.9383 59.0221 83.9097 58.4511 85.2867H60.7867Z" fill="black"/>
<path d="M78.1848 81.2964C78.3902 81.2964 78.4928 81.3553 78.4928 81.4665C78.4928 81.5809 78.4223 81.6366 78.2875 81.6366C78.1143 81.6366 77.9955 81.6758 77.9282 81.7543C77.7998 81.8786 77.6779 82.0879 77.5688 82.3823L75.5027 87.9166C75.416 88.1161 75.3423 88.2175 75.2845 88.2175C75.1979 88.2175 75.108 88.0997 75.015 87.8642L72.782 82.3823C72.6537 82.0879 72.5542 81.8982 72.4868 81.8197C72.3745 81.6987 72.2462 81.6366 72.1018 81.6366C71.9543 81.6366 71.8837 81.5809 71.8837 81.4665C71.8837 81.4239 71.9093 81.3847 71.9607 81.3487C72.012 81.316 72.0794 81.2964 72.166 81.2964C72.259 81.2964 72.3328 81.3029 72.3842 81.3095C72.4419 81.3193 72.5029 81.3291 72.5638 81.3356C72.7243 81.3618 72.8783 81.3749 73.0258 81.3749C73.1702 81.3749 73.3242 81.3618 73.4878 81.3356C73.6483 81.3095 73.8215 81.2964 74.0012 81.2964C74.1873 81.2964 74.2835 81.3553 74.2835 81.4665C74.2835 81.5711 74.2129 81.6235 74.0782 81.6235C73.7188 81.6235 73.5392 81.7249 73.5392 81.9244C73.5392 82.0552 73.6033 82.2776 73.7317 82.5916L75.477 86.8568L76.9913 82.6047C77.0844 82.3431 77.1325 82.1468 77.1325 82.016C77.1325 81.7543 76.9304 81.6235 76.5293 81.6235C76.3914 81.6235 76.324 81.5711 76.324 81.4665C76.324 81.3553 76.4267 81.2964 76.632 81.2964C76.7411 81.2964 76.863 81.3095 76.9913 81.3356C77.1197 81.3618 77.2769 81.3749 77.4662 81.3749L78.1848 81.2964Z" fill="black"/>
<path d="M82.1953 88.0343C82.0156 88.0343 81.9258 87.9722 81.9258 87.8511C81.9258 87.7563 81.9835 87.7072 82.1054 87.7072L82.3364 87.7334C82.5161 87.7334 82.638 87.6549 82.7086 87.4979C82.776 87.3147 82.8113 86.9549 82.8113 86.412V82.9318C82.8113 82.3921 82.7856 82.0519 82.7343 81.9113C82.6829 81.7739 82.6252 81.6856 82.5674 81.6496C82.5065 81.6169 82.4295 81.5973 82.3364 81.5973L82.1054 81.6235C81.9835 81.6235 81.9258 81.5777 81.9258 81.4796C81.9258 81.3585 82.0092 81.2964 82.1824 81.2964C82.3621 81.2964 82.5033 81.3029 82.6059 81.3095C82.715 81.3193 82.8305 81.3291 82.9524 81.3356C83.2508 81.3618 83.485 81.3749 83.6583 81.3749C83.8283 81.3749 84.008 81.3716 84.1973 81.3618C84.393 81.3553 84.6112 81.3454 84.8518 81.3356C85.4742 81.3095 85.9073 81.2964 86.1479 81.2964C86.3854 81.2964 86.5201 81.316 86.5458 81.3487C86.5779 81.3749 86.5971 81.4141 86.5971 81.4665C86.5971 81.5123 86.5971 81.5581 86.5971 81.6104C86.5971 81.6562 86.5907 81.702 86.5843 81.7543C86.5843 81.8328 86.5747 81.9473 86.5586 82.0945C86.5394 82.2449 86.5201 82.3431 86.4944 82.3954C86.4752 82.4477 86.4463 82.4739 86.4046 82.4739C86.3597 82.4739 86.3308 82.4673 86.3148 82.4477C86.2955 82.4216 86.2763 82.3692 86.2506 82.2907C86.2249 82.2122 86.1768 82.1403 86.1094 82.0683C86.0389 81.9996 85.9298 81.944 85.7758 81.8982C85.4934 81.8132 84.9577 81.7674 84.1716 81.7674H83.7481C83.6711 81.7674 83.6198 81.7805 83.5941 81.8066C83.5749 81.8263 83.5684 81.8721 83.5684 81.9506V84.0177C83.9534 84.0635 84.2679 84.0831 84.5181 84.0831C84.7748 84.0831 84.9544 84.0831 85.0571 84.0831C85.1662 84.0831 85.256 84.0766 85.3266 84.057C85.4549 84.0308 85.5448 83.9752 85.5961 83.8869C85.7052 83.7135 85.795 83.6252 85.8656 83.6252C85.949 83.6252 85.9939 83.671 85.9939 83.7561L85.8271 84.4626L85.8399 84.8289C85.8399 85.0644 85.7886 85.1821 85.6859 85.1821C85.5897 85.1821 85.5448 85.1233 85.5448 84.999C85.5448 84.8681 85.5352 84.7733 85.5191 84.7111C85.4999 84.6523 85.4582 84.6032 85.3908 84.5672C85.2881 84.5149 85.0347 84.4887 84.6336 84.4887C84.239 84.4887 83.8829 84.5083 83.5684 84.5411V85.7055C83.5684 86.4316 83.5845 87.0269 83.6198 87.4979C83.8764 87.56 84.1588 87.5895 84.4668 87.5895C84.7748 87.5895 85.0347 87.5829 85.2496 87.5633C85.4614 87.5469 85.6507 87.511 85.8143 87.4586C86.1223 87.3736 86.3469 87.1937 86.4944 86.9222C86.5618 86.8012 86.626 86.7391 86.6869 86.7391C86.7543 86.7391 86.7896 86.7881 86.7896 86.883C86.7896 86.9288 86.7768 86.9811 86.7511 87.04C86.7254 87.1283 86.6869 87.2558 86.6356 87.4194C86.5907 87.5862 86.5586 87.7072 86.5329 87.7857C86.5073 87.8577 86.4752 87.9133 86.4431 87.9558C86.3982 88.0245 86.3052 88.0605 86.1608 88.0605C86.0228 88.0605 85.8849 88.0539 85.7501 88.0474C85.6218 88.0474 85.4838 88.0474 85.3394 88.0474C85.1662 88.0376 84.9063 88.0245 84.5566 88.0081C83.6839 87.9623 83.1706 87.9493 83.0166 87.9558C82.869 87.9722 82.7599 87.9852 82.6829 87.9951C82.6059 88.0016 82.5289 88.0114 82.4519 88.0212C82.3814 88.0278 82.2979 88.0343 82.1953 88.0343Z" fill="black"/>
<path d="M92.1786 88.0343C91.9733 88.0343 91.8706 87.9722 91.8706 87.8511C91.8706 87.7563 91.9252 87.7072 92.0375 87.7072L92.2685 87.7334C92.4642 87.7334 92.5925 87.6254 92.6535 87.4063C92.7112 87.2166 92.7433 86.8797 92.7433 86.3989V81.8066H92.615C92.0503 81.8066 91.6011 81.8655 91.2675 81.9767C91.0365 82.065 90.8825 82.2122 90.8055 82.4216C90.7349 82.572 90.6707 82.644 90.613 82.644C90.5167 82.644 90.4718 82.5884 90.4718 82.4739C90.4718 82.4477 90.475 82.415 90.4846 82.3692C90.5007 82.3267 90.5167 82.2744 90.536 82.2122C90.5873 82.0552 90.6162 81.8949 90.6258 81.7281C90.6418 81.5548 90.6643 81.4403 90.69 81.388C90.7156 81.3291 90.7477 81.2964 90.7926 81.2964C90.844 81.2964 90.8857 81.3029 90.921 81.3095C90.9627 81.3193 91.0236 81.3291 91.1006 81.3356C91.2867 81.3618 91.5306 81.3749 91.8321 81.3749H94.8865C95.1175 81.3749 95.2875 81.3618 95.3998 81.3356C95.5089 81.3095 95.5859 81.2964 95.6308 81.2964C95.7399 81.2964 95.7976 81.3454 95.7976 81.4403C95.7976 81.4926 95.7848 81.5581 95.7591 81.6366C95.7142 81.7936 95.6853 81.9342 95.6693 82.0552C95.6501 82.1697 95.634 82.2646 95.618 82.3431C95.6083 82.415 95.5955 82.4706 95.5795 82.5131C95.5538 82.5851 95.5153 82.6178 95.464 82.6178C95.4126 82.6178 95.3773 82.6014 95.3613 82.5655C95.3517 82.5229 95.3388 82.4477 95.3228 82.3431C95.3036 82.2318 95.2747 82.1435 95.233 82.0814C95.1977 82.0127 95.1496 81.9571 95.0918 81.9113C94.9795 81.8426 94.7966 81.8066 94.54 81.8066H93.5005V86.3989C93.5005 86.8961 93.5197 87.2166 93.5646 87.354C93.6063 87.4946 93.6577 87.596 93.7186 87.6549C93.786 87.7072 93.8726 87.7334 93.9753 87.7334L94.2063 87.7072C94.325 87.7072 94.386 87.7563 94.386 87.8511C94.386 87.9722 94.2833 88.0343 94.078 88.0343C93.9657 88.0343 93.8502 88.0212 93.7315 87.9951C93.3465 87.9362 93.016 87.9264 92.7433 87.9689C92.4674 88.0114 92.2813 88.0343 92.1786 88.0343Z" fill="black"/>
<path d="M99.6628 88.0343C99.4831 88.0343 99.3933 87.9722 99.3933 87.8511C99.3933 87.7563 99.4511 87.7072 99.573 87.7072L99.804 87.7334C99.9836 87.7334 100.106 87.6549 100.176 87.4979C100.244 87.3147 100.279 86.9549 100.279 86.412V82.9318C100.279 82.3921 100.253 82.0519 100.202 81.9113C100.15 81.7739 100.093 81.6856 100.035 81.6496C99.974 81.6169 99.897 81.5973 99.804 81.5973L99.573 81.6235C99.4511 81.6235 99.3933 81.5777 99.3933 81.4796C99.3933 81.3585 99.4767 81.2964 99.65 81.2964C99.8296 81.2964 99.9708 81.3029 100.073 81.3095C100.183 81.3193 100.298 81.3291 100.42 81.3356C100.718 81.3618 100.953 81.3749 101.126 81.3749C101.296 81.3749 101.476 81.3716 101.665 81.3618C101.861 81.3553 102.079 81.3454 102.319 81.3356C102.942 81.3095 103.375 81.2964 103.615 81.2964C103.853 81.2964 103.988 81.316 104.013 81.3487C104.045 81.3749 104.065 81.4141 104.065 81.4665C104.065 81.5123 104.065 81.5581 104.065 81.6104C104.065 81.6562 104.058 81.702 104.052 81.7543C104.052 81.8328 104.042 81.9473 104.026 82.0945C104.007 82.2449 103.988 82.3431 103.962 82.3954C103.943 82.4477 103.914 82.4739 103.872 82.4739C103.827 82.4739 103.798 82.4673 103.782 82.4477C103.763 82.4216 103.744 82.3692 103.718 82.2907C103.692 82.2122 103.644 82.1403 103.577 82.0683C103.506 81.9996 103.397 81.944 103.243 81.8982C102.961 81.8132 102.425 81.7674 101.639 81.7674H101.216C101.139 81.7674 101.087 81.7805 101.062 81.8066C101.042 81.8263 101.036 81.8721 101.036 81.9506V84.0177C101.421 84.0635 101.735 84.0831 101.986 84.0831C102.242 84.0831 102.422 84.0831 102.525 84.0831C102.634 84.0831 102.724 84.0766 102.794 84.057C102.922 84.0308 103.012 83.9752 103.064 83.8869C103.173 83.7135 103.263 83.6252 103.333 83.6252C103.417 83.6252 103.461 83.671 103.461 83.7561L103.295 84.4626L103.307 84.8289C103.307 85.0644 103.256 85.1821 103.153 85.1821C103.057 85.1821 103.012 85.1233 103.012 84.999C103.012 84.8681 103.003 84.7733 102.987 84.7111C102.967 84.6523 102.926 84.6032 102.858 84.5672C102.756 84.5149 102.502 84.4887 102.101 84.4887C101.707 84.4887 101.35 84.5083 101.036 84.5411V85.7055C101.036 86.4316 101.052 87.0269 101.087 87.4979C101.344 87.56 101.626 87.5895 101.934 87.5895C102.242 87.5895 102.502 87.5829 102.717 87.5633C102.929 87.5469 103.118 87.511 103.282 87.4586C103.59 87.3736 103.814 87.1937 103.962 86.9222C104.029 86.8012 104.094 86.7391 104.154 86.7391C104.222 86.7391 104.257 86.7881 104.257 86.883C104.257 86.9288 104.244 86.9811 104.219 87.04C104.193 87.1283 104.154 87.2558 104.103 87.4194C104.058 87.5862 104.026 87.7072 104 87.7857C103.975 87.8577 103.943 87.9133 103.911 87.9558C103.866 88.0245 103.773 88.0605 103.628 88.0605C103.49 88.0605 103.352 88.0539 103.218 88.0474C103.089 88.0474 102.951 88.0474 102.807 88.0474C102.634 88.0376 102.374 88.0245 102.024 88.0081C101.151 87.9623 100.638 87.9493 100.484 87.9558C100.337 87.9722 100.227 87.9852 100.15 87.9951C100.073 88.0016 99.9965 88.0114 99.9195 88.0212C99.8489 88.0278 99.7655 88.0343 99.6628 88.0343Z" fill="black"/>
<path d="M108.311 88.0343C108.106 88.0343 108.003 87.9722 108.003 87.8511C108.003 87.7563 108.058 87.7072 108.17 87.7072L108.401 87.7334C108.597 87.7334 108.729 87.6254 108.799 87.4063C108.85 87.2166 108.876 86.8797 108.876 86.3989V82.9318C108.876 82.4543 108.854 82.1403 108.812 81.9898C108.767 81.8426 108.712 81.7412 108.645 81.6889C108.584 81.63 108.504 81.5973 108.401 81.5973L108.17 81.6235C108.058 81.6235 108.003 81.5777 108.003 81.4796C108.003 81.3585 108.087 81.2964 108.26 81.2964C108.44 81.2964 108.607 81.3095 108.761 81.3356C108.921 81.3618 109.088 81.3749 109.261 81.3749C109.441 81.3749 109.608 81.3618 109.762 81.3356C109.922 81.3095 110.127 81.2964 110.378 81.2964C110.625 81.2964 110.891 81.3422 111.173 81.4272C111.462 81.5057 111.706 81.6202 111.905 81.7674C112.306 82.0814 112.508 82.4968 112.508 83.0103C112.508 83.5794 112.28 84.0668 111.828 84.4756C111.674 84.6065 111.507 84.7209 111.327 84.8158L112.893 87.1316C113.073 87.3932 113.268 87.5568 113.483 87.6156C113.541 87.6353 113.618 87.6483 113.714 87.6549C113.875 87.6745 113.958 87.7301 113.958 87.825C113.958 87.9133 113.868 87.9558 113.689 87.9558H112.765C112.54 87.9558 112.341 87.8086 112.161 87.511L110.955 85.5354C110.843 85.362 110.737 85.241 110.634 85.1691C110.538 85.0906 110.384 85.0513 110.172 85.0513C109.967 85.0513 109.787 85.0578 109.633 85.0644V86.3989C109.633 86.8961 109.653 87.2166 109.697 87.354C109.739 87.4946 109.79 87.596 109.851 87.6549C109.919 87.7072 110.005 87.7334 110.108 87.7334L110.339 87.7072C110.458 87.7072 110.519 87.7563 110.519 87.8511C110.519 87.9722 110.416 88.0343 110.211 88.0343C110.098 88.0343 109.983 88.0212 109.864 87.9951C109.479 87.9362 109.149 87.9264 108.876 87.9689C108.6 88.0114 108.414 88.0343 108.311 88.0343ZM109.633 84.6326C109.845 84.6588 110.047 84.6719 110.236 84.6719H110.544C110.852 84.6719 111.112 84.5639 111.327 84.3448C111.584 84.0929 111.712 83.7495 111.712 83.3112C111.712 82.7879 111.552 82.3758 111.237 82.0683C110.945 81.7805 110.57 81.6366 110.108 81.6366C109.944 81.6366 109.826 81.6627 109.749 81.7151C109.672 81.7608 109.633 81.8328 109.633 81.9375V84.6326Z" fill="black"/>
<path d="M117.678 88.0343C117.463 88.0343 117.357 87.9722 117.357 87.8511C117.357 87.7563 117.415 87.7072 117.536 87.7072L117.767 87.7334C117.947 87.7334 118.066 87.6483 118.127 87.4717C118.204 87.282 118.242 86.9222 118.242 86.3989L118.217 82.9318C118.217 82.3921 118.185 82.0519 118.127 81.9113C118.075 81.7739 118.018 81.6856 117.96 81.6496C117.899 81.6169 117.825 81.5973 117.742 81.5973L117.511 81.6235C117.399 81.6235 117.344 81.5777 117.344 81.4796C117.344 81.3585 117.427 81.2964 117.601 81.2964C117.78 81.2964 117.947 81.3095 118.101 81.3356C118.262 81.3618 118.428 81.3749 118.602 81.3749C118.781 81.3749 118.948 81.3618 119.102 81.3356C119.256 81.3095 119.417 81.2964 119.59 81.2964C119.769 81.2964 119.859 81.3585 119.859 81.4796C119.859 81.5777 119.802 81.6235 119.692 81.6235L119.461 81.5973C119.282 81.5973 119.16 81.6856 119.102 81.859C119.025 82.0421 118.987 82.4019 118.987 82.9318L119.012 86.3989C119.012 86.9222 119.041 87.2591 119.102 87.4063C119.16 87.5469 119.221 87.6385 119.282 87.6811C119.349 87.717 119.426 87.7334 119.513 87.7334L119.744 87.7072C119.863 87.7072 119.923 87.7563 119.923 87.8511C119.923 87.9722 119.821 88.0343 119.615 88.0343C119.503 88.0343 119.388 88.0212 119.269 87.9951C118.874 87.9362 118.537 87.9264 118.255 87.9689C117.973 88.0114 117.78 88.0343 117.678 88.0343Z" fill="black"/>
<path d="M123.923 88.0343C123.717 88.0343 123.615 87.9722 123.615 87.8511C123.615 87.7563 123.669 87.7072 123.781 87.7072L124.025 87.7334C124.211 87.7334 124.34 87.6254 124.41 87.4063C124.462 87.2166 124.487 86.8797 124.487 86.3989V82.9449C124.487 82.4575 124.465 82.1435 124.423 82.0029C124.378 81.8557 124.324 81.7543 124.256 81.702C124.195 81.6431 124.118 81.6104 124.025 81.6104L123.781 81.6366C123.669 81.6366 123.615 81.5908 123.615 81.4926C123.615 81.3618 123.717 81.2964 123.923 81.2964L124.551 81.3749C124.686 81.3749 124.808 81.3683 124.911 81.3487L129.351 86.6082V82.9318C129.351 82.4543 129.325 82.1403 129.274 81.9898C129.229 81.8426 129.175 81.7412 129.107 81.6889C129.046 81.63 128.966 81.5973 128.863 81.5973L128.62 81.6235C128.507 81.6235 128.453 81.5777 128.453 81.4796C128.453 81.3585 128.555 81.2964 128.761 81.2964C128.838 81.2964 128.944 81.3062 129.082 81.3226C129.252 81.3585 129.406 81.3749 129.544 81.3749C129.678 81.3749 129.813 81.3618 129.941 81.3356C130.076 81.3095 130.237 81.2964 130.416 81.2964C130.596 81.2964 130.686 81.3585 130.686 81.4796C130.686 81.5777 130.625 81.6235 130.506 81.6235L130.275 81.5973C130.076 81.5973 129.945 81.7085 129.877 81.9244C129.826 82.101 129.8 82.4346 129.8 82.9318V87.8904C129.8 88.0016 129.787 88.0768 129.762 88.1128C129.742 88.1455 129.714 88.1651 129.672 88.1651C129.621 88.1651 129.531 88.0932 129.402 87.9558L124.962 82.7094V86.3989C124.962 86.8961 124.981 87.2166 125.026 87.354C125.068 87.4946 125.119 87.596 125.18 87.6549C125.248 87.7072 125.334 87.7334 125.437 87.7334L125.668 87.7072C125.777 87.7072 125.835 87.7563 125.835 87.8511C125.835 87.9722 125.738 88.0343 125.552 88.0343C125.373 88.0343 125.209 88.0212 125.065 87.9951C124.927 87.9689 124.789 87.9558 124.654 87.9558C124.516 87.9558 124.385 87.9689 124.256 87.9951C124.128 88.0212 124.016 88.0343 123.923 88.0343Z" fill="black"/>
<path d="M134.867 87.9557C134.703 87.9557 134.549 87.9688 134.405 87.995C134.257 88.0212 134.1 88.0342 133.93 88.0342C133.77 88.0342 133.686 87.9754 133.686 87.8642C133.686 87.753 133.763 87.6941 133.917 87.6941C134.078 87.6941 134.19 87.6679 134.251 87.6156C134.36 87.5109 134.469 87.3474 134.572 87.1184C134.681 86.8927 134.78 86.6801 134.867 86.4773C134.96 86.2778 135.066 86.0423 135.188 85.7708C135.306 85.5026 135.438 85.205 135.586 84.8812C135.73 84.5508 135.881 84.2008 136.035 83.8345C136.445 82.8598 136.715 82.2056 136.843 81.872C136.978 81.5318 137.052 81.3454 137.061 81.3094C137.077 81.2767 137.094 81.2407 137.113 81.2047C137.154 81.1459 137.19 81.1132 137.215 81.1132C137.248 81.1132 137.273 81.1197 137.292 81.1262C137.308 81.1262 137.331 81.1393 137.357 81.1655C137.398 81.2276 137.446 81.3192 137.498 81.4402C137.549 81.5645 137.613 81.7281 137.69 81.9374C137.774 82.1467 137.87 82.3888 137.973 82.657C138.082 82.9187 138.194 83.2032 138.306 83.5074C138.425 83.8149 138.544 84.1191 138.666 84.4232C138.794 84.7307 138.913 85.0251 139.025 85.3129C139.134 85.5942 139.237 85.8461 139.333 86.0717C139.606 86.7619 139.782 87.1707 139.859 87.3016C139.936 87.4324 140 87.524 140.052 87.5763C140.135 87.6548 140.257 87.6941 140.411 87.6941C140.565 87.6941 140.642 87.753 140.642 87.8642C140.642 87.9754 140.542 88.0342 140.347 88.0342C140.26 88.0342 140.183 88.0277 140.116 88.0212C140.055 88.0113 139.991 88.0015 139.923 87.995C139.744 87.9688 139.58 87.9557 139.436 87.9557L138.499 88.0342C138.293 88.0342 138.191 87.9721 138.191 87.8511C138.191 87.7464 138.245 87.6941 138.358 87.6941L138.653 87.7333C138.771 87.7333 138.848 87.7072 138.884 87.6548C138.925 87.6025 138.948 87.5338 138.948 87.4455C138.948 87.2983 138.884 87.0628 138.755 86.739L138.358 85.7054H135.688C135.611 85.9082 135.537 86.0914 135.47 86.2549C135.4 86.4119 135.342 86.5689 135.29 86.7259C135.204 86.981 135.162 87.1773 135.162 87.3147C135.162 87.4553 135.181 87.56 135.226 87.6287C135.278 87.7006 135.371 87.7333 135.509 87.7333L135.804 87.7072C135.913 87.7072 135.971 87.7562 135.971 87.8511C135.971 87.9721 135.868 88.0342 135.663 88.0342L134.867 87.9557ZM138.191 85.2867L137.049 82.3692C136.824 82.9383 136.426 83.9097 135.855 85.2867H138.191Z" fill="black"/>
<path d="M144.267 88.0343C144.062 88.0343 143.959 87.9722 143.959 87.8511C143.959 87.7563 144.014 87.7072 144.126 87.7072L144.357 87.7334C144.553 87.7334 144.685 87.6254 144.755 87.4063C144.806 87.2166 144.832 86.8797 144.832 86.3989V82.9318C144.832 82.4543 144.81 82.1403 144.768 81.9898C144.723 81.8426 144.669 81.7412 144.601 81.6889C144.54 81.63 144.46 81.5973 144.357 81.5973L144.126 81.6235C144.014 81.6235 143.959 81.5777 143.959 81.4796C143.959 81.3585 144.043 81.2964 144.216 81.2964C144.396 81.2964 144.563 81.3095 144.717 81.3356C144.877 81.3618 145.044 81.3749 145.217 81.3749C145.397 81.3749 145.564 81.3618 145.718 81.3356C145.878 81.3095 146.083 81.2964 146.334 81.2964C146.581 81.2964 146.847 81.3422 147.129 81.4272C147.418 81.5057 147.662 81.6202 147.861 81.7674C148.262 82.0814 148.464 82.4968 148.464 83.0103C148.464 83.5794 148.236 84.0668 147.784 84.4756C147.63 84.6065 147.463 84.7209 147.283 84.8158L148.849 87.1316C149.029 87.3932 149.224 87.5568 149.439 87.6156C149.497 87.6353 149.574 87.6483 149.67 87.6549C149.831 87.6745 149.914 87.7301 149.914 87.825C149.914 87.9133 149.824 87.9558 149.645 87.9558H148.721C148.496 87.9558 148.297 87.8086 148.117 87.511L146.911 85.5354C146.799 85.362 146.693 85.241 146.59 85.1691C146.494 85.0906 146.34 85.0513 146.128 85.0513C145.923 85.0513 145.743 85.0578 145.589 85.0644V86.3989C145.589 86.8961 145.609 87.2166 145.653 87.354C145.695 87.4946 145.747 87.596 145.807 87.6549C145.875 87.7072 145.961 87.7334 146.064 87.7334L146.295 87.7072C146.414 87.7072 146.475 87.7563 146.475 87.8511C146.475 87.9722 146.372 88.0343 146.167 88.0343C146.055 88.0343 145.939 88.0212 145.82 87.9951C145.435 87.9362 145.105 87.9264 144.832 87.9689C144.556 88.0114 144.37 88.0343 144.267 88.0343ZM145.589 84.6326C145.801 84.6588 146.003 84.6719 146.192 84.6719H146.5C146.808 84.6719 147.068 84.5639 147.283 84.3448C147.54 84.0929 147.668 83.7495 147.668 83.3112C147.668 82.7879 147.508 82.3758 147.193 82.0683C146.902 81.7805 146.526 81.6366 146.064 81.6366C145.901 81.6366 145.782 81.6627 145.705 81.7151C145.628 81.7608 145.589 81.8328 145.589 81.9375V84.6326Z" fill="black"/>
<path d="M153.634 88.0343C153.419 88.0343 153.313 87.9722 153.313 87.8511C153.313 87.7563 153.371 87.7072 153.493 87.7072L153.724 87.7334C153.903 87.7334 154.022 87.6483 154.083 87.4717C154.16 87.282 154.198 86.9222 154.198 86.3989L154.173 82.9318C154.173 82.3921 154.141 82.0519 154.083 81.9113C154.032 81.7739 153.974 81.6856 153.916 81.6496C153.855 81.6169 153.781 81.5973 153.698 81.5973L153.467 81.6235C153.355 81.6235 153.3 81.5777 153.3 81.4796C153.3 81.3585 153.383 81.2964 153.557 81.2964C153.736 81.2964 153.903 81.3095 154.057 81.3356C154.218 81.3618 154.384 81.3749 154.558 81.3749C154.737 81.3749 154.904 81.3618 155.058 81.3356C155.212 81.3095 155.373 81.2964 155.546 81.2964C155.726 81.2964 155.815 81.3585 155.815 81.4796C155.815 81.5777 155.758 81.6235 155.649 81.6235L155.418 81.5973C155.238 81.5973 155.116 81.6856 155.058 81.859C154.981 82.0421 154.943 82.4019 154.943 82.9318L154.968 86.3989C154.968 86.9222 154.997 87.2591 155.058 87.4063C155.116 87.5469 155.177 87.6385 155.238 87.6811C155.305 87.717 155.382 87.7334 155.469 87.7334L155.7 87.7072C155.819 87.7072 155.88 87.7563 155.88 87.8511C155.88 87.9722 155.777 88.0343 155.572 88.0343C155.459 88.0343 155.344 88.0212 155.225 87.9951C154.83 87.9362 154.494 87.9264 154.211 87.9689C153.929 88.0114 153.736 88.0343 153.634 88.0343Z" fill="black"/>
<path d="M160.302 87.9557C160.139 87.9557 159.985 87.9688 159.84 87.995C159.693 88.0212 159.535 88.0342 159.365 88.0342C159.205 88.0342 159.122 87.9754 159.122 87.8642C159.122 87.753 159.199 87.6941 159.353 87.6941C159.513 87.6941 159.625 87.6679 159.686 87.6156C159.795 87.5109 159.904 87.3474 160.007 87.1184C160.116 86.8927 160.216 86.6801 160.302 86.4773C160.395 86.2778 160.501 86.0423 160.623 85.7708C160.742 85.5026 160.873 85.205 161.021 84.8812C161.165 84.5508 161.316 84.2008 161.47 83.8345C161.881 82.8598 162.15 82.2056 162.279 81.872C162.413 81.5318 162.487 81.3454 162.497 81.3094C162.513 81.2767 162.529 81.2407 162.548 81.2047C162.59 81.1459 162.625 81.1132 162.651 81.1132C162.683 81.1132 162.708 81.1197 162.728 81.1262C162.744 81.1262 162.766 81.1393 162.792 81.1655C162.834 81.2276 162.882 81.3192 162.933 81.4402C162.984 81.5645 163.049 81.7281 163.126 81.9374C163.209 82.1467 163.305 82.3888 163.408 82.657C163.517 82.9187 163.629 83.2032 163.742 83.5074C163.86 83.8149 163.979 84.1191 164.101 84.4232C164.229 84.7307 164.348 85.0251 164.46 85.3129C164.569 85.5942 164.672 85.8461 164.768 86.0717C165.041 86.7619 165.217 87.1707 165.294 87.3016C165.371 87.4324 165.436 87.524 165.487 87.5763C165.57 87.6548 165.692 87.6941 165.846 87.6941C166 87.6941 166.077 87.753 166.077 87.8642C166.077 87.9754 165.978 88.0342 165.782 88.0342C165.695 88.0342 165.618 88.0277 165.551 88.0212C165.49 88.0113 165.426 88.0015 165.359 87.995C165.179 87.9688 165.015 87.9557 164.871 87.9557L163.934 88.0342C163.729 88.0342 163.626 87.9721 163.626 87.8511C163.626 87.7464 163.681 87.6941 163.793 87.6941L164.088 87.7333C164.207 87.7333 164.284 87.7072 164.319 87.6548C164.361 87.6025 164.383 87.5338 164.383 87.4455C164.383 87.2983 164.319 87.0628 164.191 86.739L163.793 85.7054H161.124C161.047 85.9082 160.973 86.0914 160.905 86.2549C160.835 86.4119 160.777 86.5689 160.726 86.7259C160.639 86.981 160.597 87.1773 160.597 87.3147C160.597 87.4553 160.617 87.56 160.662 87.6287C160.713 87.7006 160.806 87.7333 160.944 87.7333L161.239 87.7072C161.348 87.7072 161.406 87.7562 161.406 87.8511C161.406 87.9721 161.303 88.0342 161.098 88.0342L160.302 87.9557ZM163.626 85.2867L162.484 82.3692C162.259 82.9383 161.861 83.9097 161.29 85.2867H163.626Z" fill="black"/>
</g>
<defs>
<clipPath id="clip0_355_24">
<rect width="172" height="88" fill="white"/>
</clipPath>
</defs>
</svg>
